<svg xmlns="http://www.w3.org/2000/svg" width="466" height="513" viewBox="0 0 466 513">
  <defs>
    <style>
      .cls-1, .cls-4 {
        fill: #ff847c;
      }

      .cls-1, .cls-2, .cls-3 {
        fill-rule: evenodd;
      }

      .cls-2, .cls-5 {
        fill: none;
        stroke: #ecf8fd;
      }

      .cls-2 {
        stroke-width: 15px;
      }

      .cls-3, .cls-6 {
        fill: #ecf8fd;
      }

      .cls-5 {
        stroke-width: 10px;
      }
    </style>
  </defs>
  <path class="cls-1" d="M324,326s5.664,5.98,18,8a45.142,45.142,0,0,0,19-1s-1.183-6.532,10-18c9.728-9.976,18-9,18-9s2.656-10.011,1-19c-1.835-9.961-9-19-9-19s-9.694,19.192-24,34C342.807,316.691,324,326,324,326Z"/>
  <path class="cls-1" d="M339,340h21v28l-16,1Z"/>
  <path class="cls-1" d="M367,330a42.751,42.751,0,0,1,7-11,55.7,55.7,0,0,1,10-8l24,31-11,11-30-22"/>
  <path class="cls-1" d="M396,284a47.761,47.761,0,0,1,1,11,54.76,54.76,0,0,1-2,11h28l2-16Z"/>
  <path class="cls-1" d="M309,311l10,10s22.559-11.471,36-27a241.352,241.352,0,0,0,22-30l-9-11a378.236,378.236,0,0,1-24,30C330.23,298.468,309,311,309,311Z"/>
  <path class="cls-1" d="M178,64l-59,59,10,11,60-60Z"/>
  <path class="cls-2" d="M127,29L113.331,42.669C110.778,45.222,104.72,44.28,102,47c-2.788,2.788-2.238,9.238-4.831,11.831L84,72s3.812-1.094,6,0c4.144,2.072,9,7,9,7l35-35a83.49,83.49,0,0,1-7.007-9.854C125.911,32.164,127,29,127,29ZM252,205a41,41,0,1,1-41,41A41,41,0,0,1,252,205Z"/>
  <path class="cls-3" d="M110,77l22-22,24,23-23,23Z"/>
  <circle class="cls-4" cx="220" cy="381" r="17"/>
  <path class="cls-1" d="M141,130l44-44L350,252s16.656-6.042,13,0c-3.221,4.292-16.167,20.3-21,26-5.282,6.236-26.972,23.444-33,28-7.523,5.48-2-10-2-10l-18-19s29.3-33.445-3-66c-30.086-30.325-64-2-64-2Z"/>
  <circle class="cls-5" cx="220" cy="381" r="27"/>
  <rect class="cls-6" x="277" y="383" width="152" height="3"/>
  <path class="cls-3" d="M205,259s0.191-.109,1,1a10.609,10.609,0,0,1,1,2s-54.764,35.4-88,98c-25.161,68.932,16,93,16,93s-46.49-19.59-23-94C147.523,292.317,205,259,205,259Z"/>
  <rect class="cls-6" x="101" y="463" width="301" height="4"/>
  <path class="cls-3" d="M329,435h43s3.006-.027,3,10c-0.058-.035-1.967-0.014-2,0,0.027-7.975-1-8-1-8s-34.9-.165-42,0a1.2,1.2,0,0,0-1,1s-1.122.024-2,0C326.7,437.992,329,435,329,435Z"/>
  <circle class="cls-4" cx="252" cy="246" r="26"/>
  <path class="cls-3" d="M209,266a71.159,71.159,0,0,0,10.156,12.96,91.7,91.7,0,0,0,13.854,11.673S220.256,304.76,216,318c-4.72,14.685-3,30-3,30a38.2,38.2,0,0,0-16,10c-7.481,7.911-13.746,21.584-6,37,10.466,20.829,38.065,22.68,51.388,10.654C251.714,397.236,253.034,384.01,253,384l20,2v3H393l-3,10H258s-10.65,4.324-15,10c-7.316,9.545-5,18-5,18l86,14h46v7l17,3v9l-236-1s-50.354-25.209-33-84C139.187,315.874,209,266,209,266Z"/>
</svg>
