<svg xmlns="http://www.w3.org/2000/svg" xmlns:xlink="http://www.w3.org/1999/xlink" version="1.1" x="0px" y="0px" viewBox="0 0 100 125" enable-background="new 0 0 100 100" xml:space="preserve"><path fill="#000000" d="M83.232,74.278H54.941c-0.545,0-1.008,0.339-1.2,0.816c-1.213-0.086-2.415-0.236-3.549-0.52  c-0.147-3.307-2.86-5.955-6.195-5.989c-0.533-2.151-0.381-4.53,0.49-6.269c0.42-0.839,1.593-2.47,2.896-4.18  c0.82,0.244,1.687,0.38,2.586,0.38c2.299,0,4.395-0.865,5.997-2.277l3.399,3.399c-0.677,1.17-1.015,1.964-1.045,2.035  c-0.139,0.333,0.019,0.716,0.352,0.855c0.082,0.034,0.168,0.051,0.252,0.051c0.18,0,0.334-0.095,0.458-0.227l2.426,2.425  c0.957,0.958,2.094,1.665,3.33,2.113c0.001,0.005-0.001,0.01,0,0.014l1.124,5.72c0.128,0.654,0.704,1.129,1.371,1.129  c0.018,0,0.114-0.004,0.133-0.006l2.428-0.229c0.719-0.068,1.263-0.664,1.266-1.385l0.028-5.298  c0.084-0.032,0.171-0.059,0.254-0.094l4.596,3.494c0.249,0.203,0.563,0.315,0.885,0.315c0.374,0,0.725-0.146,0.988-0.409  l1.725-1.725c0.51-0.51,0.55-1.314,0.106-1.857l-3.477-4.572c0.031-0.072,0.065-0.142,0.095-0.214l5.298,0.082  c0.004,0,0.021,0.001,0.023,0.001c0.711,0,1.308-0.532,1.389-1.237l0.279-2.423c0.084-0.716-0.385-1.372-1.09-1.526l-5.696-1.243  c-0.008-0.002-0.016,0.001-0.024,0c-0.434-1.282-1.15-2.459-2.126-3.451c-0.006-0.007-0.012-0.014-0.019-0.021  c-0.01-0.01-0.019-0.022-0.029-0.032l-2.414-2.415c0.204-0.192,0.276-0.494,0.146-0.759c-0.16-0.323-0.552-0.457-0.876-0.298  c-0.076,0.038-0.886,0.441-2.055,1.155L38.207,18.35l0.979-0.979c0.108-0.108,0.169-0.255,0.169-0.408s-0.061-0.3-0.169-0.408  l-2.775-2.775c-0.226-0.226-0.591-0.226-0.816,0l-3.291,3.291l-4.502-4.502l0.887-0.887c0.108-0.108,0.169-0.255,0.169-0.408  s-0.061-0.3-0.169-0.409c-2.302-2.301-1.079-3.65-1.031-3.701c0.113-0.113,0.169-0.26,0.169-0.408S27.77,6.46,27.657,6.348  c-0.226-0.226-0.591-0.226-0.816,0l-3.433,3.433c-0.899,0.02-1.792,0.351-2.447,1.006l-0.382,0.382  c-0.685,0.686-1.03,1.583-1.041,2.483l-3.397,3.397v0c-0.224,0.223-0.223,0.582-0.003,0.808c0.221,0.227,0.584,0.231,0.814,0.015  c0.016-0.016,0.407-0.377,1.096-0.377c0.791,0,1.693,0.485,2.61,1.403c0.108,0.108,0.255,0.169,0.409,0.169s0.3-0.061,0.408-0.169  l0.887-0.887l4.502,4.502l-3.291,3.291c-0.226,0.225-0.226,0.591,0,0.816l2.775,2.775c0.108,0.108,0.255,0.169,0.408,0.169  s0.3-0.061,0.408-0.169l0.979-0.979l15.014,15.014c-1.412,1.603-2.277,3.699-2.277,5.997c0,0.213,0.017,0.422,0.032,0.632  c-4.544,2.666-10.809,7.359-16.268,15.078c-7.692,10.878-3.592,19.914-1.473,23.294c0.264,0.421,0.59,0.784,0.955,1.097h-2.418  c-0.715,0-1.297,0.582-1.297,1.298v0.129c0,0.716,0.582,1.298,1.297,1.298h0.855c-0.006,0.049-0.029,0.092-0.029,0.143v0.13  c0,0.716,0.582,1.297,1.298,1.297h1.699c0.715,0,1.297-0.581,1.297-1.297v-0.13c0-0.051-0.023-0.094-0.029-0.143h46.819  c-0.006,0.049-0.029,0.092-0.029,0.143v0.13c0,0.716,0.581,1.297,1.297,1.297h1.699c0.716,0,1.298-0.581,1.298-1.297v-0.13  c0-0.051-0.023-0.094-0.029-0.143h0.114c0.716,0,1.297-0.582,1.297-1.298v-0.129c0-0.716-0.581-1.298-1.297-1.298h-1.512  c0.059-0.173,0.099-0.355,0.099-0.548c0-0.784-0.531-1.464-1.34-1.663l-0.977-0.157c0.072-0.217,0.12-0.445,0.12-0.687v-0.294  c0-1.219-0.991-2.21-2.211-2.21h-7.204c-0.921,0-1.711,0.566-2.042,1.368l-13.971-2.246c-0.776-0.192-0.856-0.534-0.882-0.646  c-0.154-0.654,0.549-1.778,1.301-2.416c1.115-0.947,4.819-0.947,6.6-0.947l0.681,0.001c0.512,0,0.949-0.003,1.242-0.021h17.491  c1.04,0,1.886-0.846,1.886-1.885c0-0.06-0.012-0.116-0.018-0.174h6c0.716,0,1.297-0.582,1.297-1.298v-0.129  C84.529,74.86,83.948,74.278,83.232,74.278z M77.21,56.957l0.031-0.265l5.072,1.107c0.122,0.026,0.203,0.141,0.188,0.265  l-0.28,2.424c-0.014,0.122-0.117,0.214-0.24,0.214v0.575l-0.005-0.575l-4.946-0.076c0.189-0.735,0.296-1.496,0.296-2.274  C77.326,57.879,77.28,57.415,77.21,56.957z M70.305,72.128c-0.001,0.125-0.096,0.229-0.221,0.24l-2.428,0.229l-0.023,0.568l0,0.011  v-0.011v-0.567c-0.115,0-0.216-0.082-0.238-0.196l-1.001-5.094l0.206-0.019c0.535,0.097,1.081,0.152,1.636,0.152  c0.716,0,1.416-0.092,2.095-0.251L70.305,72.128z M79.134,67.275c0.079,0.098,0.072,0.237-0.016,0.326l-1.725,1.725  c-0.127,0.126-0.202,0.117-0.342,0.003l-5.381-4.092c0.237-0.486,0.725-1.353,1.498-2.127c0.545-0.544,1.374-0.991,1.863-1.228  L79.134,67.275z M76.019,58.352c0,0.837-0.137,1.651-0.39,2.424c-0.163-0.172-0.412-0.232-0.635-0.144  c-0.067,0.028-1.666,0.688-2.642,1.663c-1.333,1.332-1.912,2.861-1.936,2.925c-0.074,0.2-0.027,0.416,0.107,0.574  c-0.732,0.224-1.501,0.341-2.289,0.341c-1.724,0-3.357-0.564-4.705-1.593c1.282-0.6,3.599-1.899,6.019-4.319  c2.549-2.549,4.126-5.251,4.837-6.627C75.441,54.951,76.019,56.605,76.019,58.352z M66.806,57.008  c1.795-1.796,3.992-4.838,4.926-6.167l1.713,1.714c-0.154,0.314-0.404,0.801-0.751,1.399c-0.815,1.407-2.164,3.437-4.069,5.342  c-1.91,1.91-3.766,3.081-5.009,3.737c-0.494,0.26-0.89,0.439-1.154,0.55l-1.734-1.734C62.041,60.933,65.016,58.797,66.806,57.008z   M21.053,17.684c-0.874-0.77-1.743-1.211-2.596-1.319l7.698-7.698c0.106,0.85,0.548,1.719,1.32,2.595L21.053,17.684z M26.754,28.169  l-1.958-1.958l11.207-11.207l1.958,1.958L26.754,28.169z M49.969,41.643c4.292,0,7.782,3.492,7.782,7.783s-3.49,7.782-7.782,7.782  s-7.783-3.49-7.783-7.782S45.678,41.643,49.969,41.643z M23.028,82.567c-0.386-1.17-0.617-2.493-0.717-3.903  c-0.114-1.414,0.029-2.916,0.328-4.431c0.3-1.521,0.853-3.028,1.526-4.501c0.385-0.711,0.753-1.48,1.188-2.147l0.651-1.009  l0.163-0.253c0.078-0.122,0.123-0.175,0.187-0.266l0.355-0.492c1.908-2.618,4.035-5.071,6.196-7.202  c2.162-2.131,4.374-3.915,6.378-5.291c0.676-0.459,1.319-0.842,1.94-1.195c0.048,0.171,0.101,0.339,0.158,0.506  c-0.553,0.373-1.123,0.769-1.723,1.216c-1.907,1.432-3.959,3.332-6.032,5.476c-2.055,2.162-4.131,4.583-5.984,7.168l-0.352,0.481  c-0.052,0.073-0.133,0.176-0.161,0.224L26.965,67.2l-0.659,1.004c-0.443,0.669-0.761,1.344-1.137,2.016  c-0.637,1.398-1.225,2.801-1.536,4.233c-0.304,1.425-0.523,2.835-0.479,4.181c0.029,1.341,0.185,2.615,0.499,3.752  c0.32,1.131,0.7,2.151,1.146,3.004c0.236,0.416,0.445,0.821,0.697,1.152c0.237,0.355,0.452,0.638,0.738,0.842  c0.546,0.423,1.023,0.704,1.362,0.858c0.341,0.159,0.546,0.165,0.546,0.165s-0.206,0.016-0.569-0.107  c-0.359-0.123-0.877-0.337-1.473-0.735c-0.146-0.1-0.305-0.214-0.454-0.358c-0.143-0.15-0.263-0.308-0.405-0.473  c-0.288-0.322-0.535-0.718-0.815-1.129C23.89,84.763,23.408,83.737,23.028,82.567z M64.944,85.123h7.204  c0.582,0,1.057,0.474,1.057,1.056v0.294c0,0.183-0.059,0.347-0.142,0.498l-0.218-0.035c0.043-0.081,0.075-0.17,0.075-0.268v-0.683  c0-0.319-0.258-0.577-0.577-0.577H64.75c-0.156,0-0.295,0.063-0.399,0.163l-0.222-0.036C64.323,85.29,64.609,85.123,64.944,85.123z   M74.853,90.682h3.116c0.078,0,0.143,0.064,0.143,0.144v0.129c0,0.079-0.064,0.144-0.143,0.144h-1.383h-1.699H25.531h-1.699h-2.124  c-0.078,0-0.142-0.064-0.142-0.144v-0.129c0-0.079,0.064-0.144,0.142-0.144h5.536H74.853z M43.933,79.821  c-2.738,0-4.966-2.228-4.966-4.966c0-2.737,2.228-4.965,4.966-4.965s4.966,2.228,4.966,4.965  C48.899,77.594,46.671,79.821,43.933,79.821z M83.375,75.705c0,0.079-0.064,0.144-0.143,0.144H54.941  c-0.079,0-0.144-0.064-0.144-0.144v-0.129c0-0.079,0.064-0.144,0.144-0.144h28.291c0.078,0,0.143,0.064,0.143,0.144V75.705z"/><path fill="#000000" d="M43.933,71.446c-1.88,0-3.41,1.529-3.41,3.409c0,1.881,1.53,3.41,3.41,3.41c1.88,0,3.41-1.529,3.41-3.41  C47.343,72.976,45.813,71.446,43.933,71.446z"/><path fill="#000000" d="M49.969,54.255c2.663,0,4.829-2.166,4.829-4.829c0-2.663-2.166-4.83-4.829-4.83  c-2.663,0-4.83,2.167-4.83,4.83C45.14,52.089,47.306,54.255,49.969,54.255z"/><text x="0" y="115" fill="#000000" font-size="5px" font-weight="bold" font-family="'Helvetica Neue', Helvetica, Arial-Unicode, Arial, Sans-serif">Created by Jesse Kerman</text><text x="0" y="120" fill="#000000" font-size="5px" font-weight="bold" font-family="'Helvetica Neue', Helvetica, Arial-Unicode, Arial, Sans-serif">from the Noun Project</text></svg>