<svg xmlns="http://www.w3.org/2000/svg" data-name="Layer 1" viewBox="0 0 100 125" x="0px" y="0px"><title>Artboard 1</title><path d="M77.51,58.82a3.82,3.82,0,0,0,.93-2.48,3.84,3.84,0,0,0-5.51-3.49c-.68-.72-1.41-1.45-2.18-2.17a51.94,51.94,0,0,0,3.6-3.75c4.46-5.22,6-9.75,4.22-12.76a6.31,6.31,0,0,0-4-2.82c-3.37-.9-8.39-.35-14.13,1.37-2.18-9.23-6-15-10.39-15-1.88,0-3.7,1.06-5.32,3.06a4,4,0,0,0-1.1-.18,3.85,3.85,0,0,0-2.4,6.87,48.93,48.93,0,0,0-1.55,5.29c-9-2.68-16-2.36-18.2,1.46-1.74,3-.24,7.54,4.22,12.76a51.65,51.65,0,0,0,3.59,3.74,51.65,51.65,0,0,0-3.59,3.74c-4.46,5.21-6,9.74-4.23,12.75a5.28,5.28,0,0,0,.9,1.11s0,0,0,0a4.52,4.52,0,0,0,8.55,2,40.8,40.8,0,0,0,8.76-1.73c2.18,9.22,6,15,10.38,15s8.16-5.61,10.38-15a37.31,37.31,0,0,0,10.39,1.79A14.7,14.7,0,0,0,74.52,70a6.27,6.27,0,0,0,4-2.82C79.8,65.05,79.41,62.17,77.51,58.82Zm-1.07-2.48a1.87,1.87,0,1,1-1.87-1.87A1.87,1.87,0,0,1,76.44,56.34ZM74,33.28a4.39,4.39,0,0,1,2.84,1.89c1.27,2.18-.2,6-4,10.45a47.09,47.09,0,0,1-3.57,3.71A74.36,74.36,0,0,0,62,43.74a75.53,75.53,0,0,0-1.22-9.09C66.22,33,70.91,32.45,74,33.28ZM52.29,63.42c1.29-.66,2.58-1.36,3.86-2.1S58.69,59.8,59.91,59c-.24,2.46-.58,4.82-1,7.05A70.31,70.31,0,0,1,52.29,63.42Zm2.86-3.83c-1.71,1-3.43,1.9-5.14,2.75-1.71-.85-3.44-1.76-5.16-2.75s-3.36-2-4.94-3.08c-.13-1.86-.21-3.81-.21-5.84s.07-3.92.2-5.84q2.39-1.59,5-3.08c1.73-1,3.45-1.91,5.16-2.75,1.68.83,3.39,1.74,5.14,2.75s3.36,2,5,3.08c.13,1.86.21,3.81.21,5.84s-.07,3.92-.2,5.83C58.52,57.56,56.87,58.6,55.15,59.59Zm-7.44,3.83c-2.25,1-4.46,1.91-6.59,2.63a69.86,69.86,0,0,1-1-7c1.22.79,2.46,1.56,3.74,2.3S46.42,62.76,47.71,63.42Zm-9.89-8.35c-2-1.44-3.88-2.91-5.59-4.4a70.36,70.36,0,0,1,5.58-4.39c-.07,1.45-.11,2.92-.11,4.39S37.75,53.64,37.82,55.07Zm9.92-17.16c-1.3.66-2.59,1.36-3.89,2.11s-2.53,1.51-3.75,2.3c.24-2.46.58-4.83,1-7.07C43.21,36,45.43,36.85,47.74,37.91Zm4.56,0c2.25-1,4.47-1.92,6.59-2.65.43,2.2.77,4.56,1,7-1.22-.78-2.47-1.56-3.75-2.3S53.57,38.57,52.3,37.92Zm9.89,8.36c2,1.43,3.87,2.91,5.57,4.39a69.89,69.89,0,0,1-5.56,4.38c.07-1.44.11-2.91.11-4.38S62.26,47.7,62.19,46.28ZM43.58,22.55a1.87,1.87,0,1,1-1.86,1.87A1.87,1.87,0,0,1,43.58,22.55ZM43,28.22a3.55,3.55,0,0,0,.56.06,3.85,3.85,0,0,0,2.82-6.49A5.06,5.06,0,0,1,50,19.67c3.39,0,6.57,5.42,8.48,13.66A75.9,75.9,0,0,0,50,36.78a75.47,75.47,0,0,0-8.47-3.47A46,46,0,0,1,43,28.22ZM27.17,45.62c-3.81-4.45-5.28-8.27-4-10.45,1.59-2.76,7.67-3.08,16-.54A77.53,77.53,0,0,0,38,43.73a74.72,74.72,0,0,0-7.23,5.59A45.35,45.35,0,0,1,27.17,45.62Zm-.33,25.22a2.53,2.53,0,1,1,2.53-2.53A2.53,2.53,0,0,1,26.84,70.84Zm4.53-2.53h0A4.52,4.52,0,0,0,23,65.89c-1-2.22.48-5.9,4.14-10.18A47,47,0,0,1,30.74,52,75,75,0,0,0,38,57.62a75.1,75.1,0,0,0,1.22,9.05A39.79,39.79,0,0,1,31.37,68.31ZM50,81.67c-3.39,0-6.56-5.42-8.47-13.65A76.53,76.53,0,0,0,50,64.55,76,76,0,0,0,58.47,68C56.53,76.33,53.25,81.67,50,81.67ZM76.84,66.16A4.39,4.39,0,0,1,74,68.05c-3.1.83-7.79.28-13.2-1.37A77,77,0,0,0,62,57.61,77.27,77.27,0,0,0,69.25,52c.76.71,1.48,1.42,2.15,2.12a3.86,3.86,0,0,0,3.17,6.06A3.65,3.65,0,0,0,75.86,60C77.3,62.56,77.66,64.74,76.84,66.16Z"/><path d="M50,45.36a5.31,5.31,0,1,0,5.31,5.31A5.31,5.31,0,0,0,50,45.36ZM50,54a3.31,3.31,0,1,1,3.31-3.3A3.31,3.31,0,0,1,50,54Z"/><text x="0" y="115" fill="#000000" font-size="5px" font-weight="bold" font-family="'Helvetica Neue', Helvetica, Arial-Unicode, Arial, Sans-serif">Created by shwepes</text><text x="0" y="120" fill="#000000" font-size="5px" font-weight="bold" font-family="'Helvetica Neue', Helvetica, Arial-Unicode, Arial, Sans-serif">from the Noun Project</text></svg>