<?xml version="1.0" encoding="utf-8"?>
<!-- Generator: Adobe Illustrator 23.0.3, SVG Export Plug-In . SVG Version: 6.00 Build 0)  -->
<svg version="1.1" id="Layer_1" xmlns="http://www.w3.org/2000/svg" xmlns:xlink="http://www.w3.org/1999/xlink" x="0px" y="0px"
	 viewBox="0 0 100 125" style="enable-background:new 0 0 100 125;" xml:space="preserve">
<style type="text/css">
	.st0{display:none;}
	.st1{display:inline;}
	.st2{display:inline;fill:#FFB7B1;}
	.st3{fill:#FFF4F4;stroke:#000000;stroke-width:0.5;stroke-miterlimit:10;}
</style>
<g id="Left" class="st0">
	<path class="st1" d="M29.8,78.9c-0.7-1.2-1.8-2.1-3.1-2.5c-1.3-0.4-2.7-0.2-3.9,0.5c-0.8,0.4-1.4,1.1-1.9,1.9
		c-0.3,0.5-0.5,1-0.6,1.5c-0.2,1.9,0.3,3,0.3,3c0.3,0.8,0.8,1.5,1.5,2.1c0.6,0.5,1.4,0.9,2.1,1c2.3,0.5,4.4-0.7,5.5-2.5
		c0.4-0.7,0.6-1.5,0.7-2.1C30.4,80.2,29.8,78.9,29.8,78.9z M23.5,82.5c-0.6-1-0.2-2.3,0.8-2.9c0.5-0.3,1.1-0.4,1.6-0.2
		c0.5,0.1,1,0.5,1.3,1c0.4,0.7,0.4,1.5,0,2.1c-0.2,0.3-0.5,0.6-0.8,0.8C25.4,83.9,24.1,83.5,23.5,82.5z"/>
	<path class="st1" d="M20.6,83.4l-0.3-3c-4,0.1-6.7-0.9-7.7-2.6c-2-3.4,3-11.5,12.9-20c2.1-1.7,7-5.4,9.5-7.1
		c1.9-1.3,5.5-3.6,7.7-4.8c2.1-1.2,5.9-3.3,8-4.3c2.7-1.2,8.4-3.6,10.9-4.6c3.4-1.1,6.2-2.1,9.1-2.6c0.8-0.1,1.4-0.9,1.2-1.7
		c-0.1-0.8-0.9-1.4-1.7-1.2c-2.9,0.6-4.3,1-7.6,2.2C54.8,36,47,40,41.5,43.2c-0.1,0-0.1,0.1-0.2,0.1c-0.1,0-0.1,0.1-0.2,0.1
		C36.6,46,33.7,48,33.7,48c-3.3,2.2-6.4,4.6-9.3,7l-2.3,2c-4.7,4.1-8.4,8.2-10.6,12c-2.3,3.9-3.1,7.5-1.5,10.4
		C11.2,81.3,14,83.6,20.6,83.4z"/>
	<path class="st1" d="M30.4,81.8c1.7-0.3,5.2-1.5,5.2-1.5l2.9-1c3.5-1.3,6.8-2.7,10.6-4.6c7-3.5,17.3-9.1,27.1-17.8
		c9.6-8.5,15.1-16.9,12-22.4c-2-3.4-6.6-4.7-13.6-3.9c-0.8,0.1-1.4,0.8-1.4,1.6c0.1,0.8,0.8,1.5,1.6,1.4c4.8-0.5,9.3-0.3,10.8,2.4
		c2,4.1-3.5,11.8-12.9,20c-2,1.8-7.1,5.4-9.5,7.1c-1.9,1.3-5.5,3.6-7.7,4.8c-2.1,1.2-5.8,3.2-7.9,4.3c-2.7,1.2-8.5,3.9-11.1,4.7
		c-1.8,0.6-4.9,1.6-6.6,2L30.4,81.8z"/>
</g>
<g id="Right" class="st0">
	<path class="st2" d="M77.8,62.7c-0.7,1.2-0.9,2.6-0.5,3.9c0.4,1.3,1.2,2.4,2.4,3.1c0.8,0.5,1.7,0.7,2.6,0.7c0.6,0,1.1-0.1,1.6-0.3
		c1.8-0.8,2.5-1.7,2.5-1.7c0.5-0.7,0.9-1.4,1-2.4c0.1-0.8,0.1-1.6-0.2-2.4c-0.8-2.2-2.8-3.5-4.9-3.5c-0.8,0-1.6,0.2-2.2,0.5
		C78.6,61.5,77.8,62.7,77.8,62.7z M84.1,66.4c-0.6,1-1.9,1.4-2.9,0.8c-0.5-0.3-0.8-0.7-1-1.3c-0.1-0.5-0.1-1.1,0.2-1.6
		c0.4-0.7,1.1-1.1,1.9-1.1c0.4,0,0.7,0.1,1.1,0.3C84.3,64,84.7,65.3,84.1,66.4z"/>
	<path class="st2" d="M80,60.7c-1.1-1.3-3.9-3.7-3.9-3.7l-2.3-2c-2.8-2.4-5.8-4.6-9.3-6.9C58,43.8,48,37.7,35.6,33.6
		c-11.9-4-22.3-4.7-25.5,0.9c-1.2,2.1-1.7,5.9,2.5,12.2c0.5,0.7,1.4,0.9,2.1,0.4c0.7-0.5,0.9-1.4,0.4-2.1c-2.7-3.9-3.5-7.1-2.4-9
		c2-3.4,12-2.8,23.8,1.1c2.5,0.9,8.2,3.4,10.9,4.6c2.1,1,5.9,3,8,4.3c2.1,1.2,5.7,3.5,7.7,4.8c2.4,1.7,7.4,5.4,9.5,7.1
		c1.4,1.3,3.9,3.5,5.2,4.8L80,60.7z"/>
	<path class="st2" d="M86.3,68.4l-2.5,1.7c2,3.3,2.6,6.1,1.6,7.8c-2,3.4-12,2.9-23.8-1.1c-2.5-0.9-8.2-3.4-10.9-4.6
		c-2.1-1-5.9-3-8-4.2c-2.1-1.2-5.7-3.5-7.7-4.8c-2.4-1.7-7.4-5.4-9.5-7.2c-2.7-2.3-6.2-5.7-8.1-7.9c-0.5-0.6-1.5-0.7-2.1-0.2
		c-0.6,0.5-0.7,1.5-0.2,2.1c1.9,2.3,4.3,4.6,6.9,7c6,5.5,13.4,10.3,19,13.5c0.1,0,0.1,0.1,0.2,0.1c0.1,0,0.1,0.1,0.2,0.1
		c4.5,2.6,7.6,4.1,7.6,4.1c3.6,1.7,7.1,3.3,10.6,4.6l2.8,1c5.9,2,11.4,3.2,15.9,3.2c4.5,0,8-1.2,9.6-4C89.2,77.5,89.7,74,86.3,68.4z
		"/>
</g>
<g id="Verticle" class="st0">
	<path class="st1" d="M58.8,88.7c-0.8-0.3-1.6,0.1-1.9,0.9c-2.3,6-5.1,9.4-7.8,9.4c-3.9,0-8.5-9-10.9-21.1C37.8,75.2,37,69,36.7,66
		c-0.1-2.3-0.3-6.5-0.3-8.9c0-0.8-0.7-1.5-1.5-1.5c0,0,0,0,0,0c-0.8,0-1.5,0.7-1.5,1.5c0,1.6,0.1,5.2,0.2,6.8
		c0.3,3.9,1.1,11.2,1.7,14.9c2.5,12.3,7.3,23.1,13.8,23.1c4.1,0,7.7-3.9,10.6-11.3C60,89.9,59.6,89,58.8,88.7z"/>
	<path class="st1" d="M43.2,20.2c1.9-3.4,4-5.3,5.9-5.3c3.9,0,8.5,9,10.9,21.1c0.4,2.6,1.2,8.8,1.5,11.8c0.1,2.3,0.3,6.6,0.3,9.1
		c0,2.4-0.2,6.7-0.3,9.1c-0.3,2.9-1,9.1-1.4,11.8c-0.4,2.2-1.2,5.7-1.8,7.7c-0.2,0.8,0.2,1.6,1,1.9c0.1,0,0.3,0.1,0.4,0.1
		c0.6,0,1.2-0.4,1.4-1.1c0.5-1.9,1.3-5.4,1.7-7.5c0.6-3.6,1.4-10.9,1.7-14.9c0.1-1.7,0.2-5.3,0.2-7c0-1.7-0.1-5.3-0.2-7
		c-0.3-3.9-1.1-11.2-1.7-14.9c-2.5-12.3-7.3-23.1-13.8-23.1c-2.3,0-5.5,1.3-8.7,7.1"/>
	<path class="st1" d="M36.9,28.3c-0.5,1.7-1.2,4.9-1.5,6.8c-0.6,3.6-1.4,10.9-1.7,14.9c0,0.3-0.1,2.4-0.1,2.7c0,0.8,0.6,1.5,1.5,1.5
		c0,0,0,0,0,0c0.8,0,1.5-0.6,1.5-1.5c0-1,0.2-3.9,0.3-4.9c0.2-2.9,1-9.1,1.5-11.8c0.4-1.9,1.1-5.2,1.5-6.9"/>
	<path class="st1" d="M39.7,29.2C39.8,29.2,39.8,29.2,39.7,29.2c2.9,0,5.2-2.3,5.2-5.1c0-1.5-0.7-2.9-1.7-3.8c0,0-0.8-1-2.7-1.3
		c-0.2,0-0.4-0.1-0.7-0.1c-2.8,0-5.1,2.3-5.1,5.1c0,1.8,1,3.4,2.2,4.2C38,29,39.8,29.2,39.7,29.2 M39.8,26.2c-1.2,0-2.1-1-2.1-2.1
		c0-1.2,1-2.1,2.1-2.1c0.3,0,0.5,0.1,0.8,0.2c0,0,0,0,0,0c0,0,0,0,0.1,0c0.8,0.3,1.3,1.1,1.3,2C41.9,25.2,41,26.2,39.8,26.2z"/>
</g>
<g id="Ori">
	<path d="M49.1,63.6c3.7,0,6.6-3,6.6-6.6s-3-6.6-6.6-6.6s-6.6,3-6.6,6.6S45.4,63.6,49.1,63.6z M49.1,52.8c2.3,0,4.1,1.9,4.1,4.1
		s-1.9,4.1-4.1,4.1S45,59.2,45,56.9S46.8,52.8,49.1,52.8z"/>
	<path class="st3" d="M88.1,34.4c-1.9-3.3-6.6-4.6-13.6-3.7c-0.8,0.1-1.4,0.9-1.3,1.7c0.1,0.8,0.9,1.4,1.7,1.3
		c5.6-0.7,9.5,0.1,10.7,2.2c2,3.4-2.4,10.8-11.7,19c-2.8-2.4-6-4.7-9.3-6.9c-0.3-3.9-0.7-7.8-1.3-11.5c2.7-0.9,5.3-1.7,7.7-2.2
		c0.8-0.2,1.3-1,1.2-1.8c-0.2-0.8-1-1.3-1.8-1.2c-2.4,0.5-5,1.2-7.6,2.1c-2.5-12.3-7.1-21.6-13.5-21.6c-2.3,0-5.5,1.3-8.7,7.1
		c-0.2,0-0.4-0.1-0.7-0.1c-2.8,0-5.1,2.3-5.1,5.1c0,1.8,0.9,3.3,2.2,4.2c-0.5,1.7-0.9,3.4-1.3,5.3c-11.9-4-22.3-4.7-25.5,0.9
		c-1.2,2.1-1.7,5.9,2.5,12.2c0.5,0.7,1.4,0.9,2.1,0.4c0.7-0.5,0.9-1.4,0.4-2.1c-2.7-3.9-3.5-7.1-2.4-9c2-3.4,10.6-3.4,22.3,0.6
		c-0.6,3.6-1.1,7.5-1.3,11.5c-3.3,2.2-6.4,4.5-9.3,6.9c-2.7-2.3-5-4.7-6.9-6.9c-0.5-0.6-1.5-0.7-2.1-0.2c-0.6,0.5-0.7,1.5-0.2,2.1
		c1.9,2.3,4.3,4.6,6.9,7c-9.4,8.3-15.2,16.9-12,22.5c1.1,1.9,3.6,4,9.6,4c0.3,0,0.5,0,0.8,0c0.1,0.2,0.2,0.4,0.3,0.6
		c0.9,1.6,2.6,2.6,4.4,2.6c0.9,0,1.8-0.2,2.6-0.7c1.5-0.9,2.4-2.4,2.5-4c1.7-0.4,3.4-0.9,5.2-1.5c2.5,12.3,7.1,21.6,13.5,21.6
		c4.1,0,7.7-3.9,10.6-11.3c0.3-0.8-0.1-1.6-0.9-1.9c-0.8-0.3-1.6,0.1-1.9,0.9c-2.3,6-5.1,9.4-7.8,9.4c-3.9,0-8.2-7.5-10.6-19.6
		c3.5-1.3,7-2.8,10.6-4.6c3.6,1.7,7.1,3.3,10.6,4.6c-0.4,2.2-0.9,4.2-1.5,6.2c-0.2,0.8,0.2,1.6,1,1.9c0.1,0,0.3,0.1,0.4,0.1
		c0.6,0,1.2-0.4,1.4-1.1c0.5-1.9,1-3.9,1.5-6c5.9,2,11.4,3.2,15.9,3.2c4.5,0,8-1.2,9.6-4c1.1-2,1.7-5.4-1.8-11
		c0.1-0.2,0.3-0.4,0.4-0.6c1.4-2.5,0.6-5.6-1.9-7c-0.8-0.5-1.7-0.7-2.6-0.7c-0.8,0-1.5,0.2-2.2,0.5c-1.2-1.2-2.5-2.5-3.9-3.7
		C85.5,48.6,91.3,40,88.1,34.4z M71.5,56.9c-2.1,1.7-4.3,3.4-6.8,5.1c0.1-1.7,0.1-3.4,0.1-5.1c0-1.7,0-3.4-0.1-5.1
		C67.1,53.5,69.4,55.2,71.5,56.9z M61.3,46c-1.4-0.9-2.9-1.8-4.4-2.7c-1.5-0.8-3-1.7-4.5-2.5c2.7-1.2,5.3-2.4,7.8-3.3
		C60.7,40.2,61.1,43,61.3,46z M39.8,21.9c0.3,0,0.5,0.1,0.8,0.2c0,0,0,0,0,0c0,0,0,0,0.1,0c0.8,0.3,1.3,1.1,1.3,2
		c0,1.2-1,2.1-2.1,2.1s-2.1-1-2.1-2.1C37.6,22.9,38.6,21.9,39.8,21.9z M39.7,29.2C39.8,29.2,39.8,29.2,39.7,29.2
		c2.9,0,5.2-2.3,5.2-5.1c0-1.5-0.7-2.9-1.7-3.8c1.9-3.4,4-5.3,5.9-5.3c3.9,0,8.2,7.5,10.6,19.6c-3.5,1.3-7,2.8-10.6,4.6
		c-3.6-1.7-7.1-3.3-10.6-4.6C38.8,32.7,39.3,30.9,39.7,29.2z M37.9,37.6c2.5,0.9,5.1,2,7.8,3.3c-1.5,0.8-3,1.6-4.5,2.5
		c-1.5,0.9-2.9,1.7-4.4,2.7C37.1,43.1,37.5,40.3,37.9,37.6z M33.5,51.8c0,0.3,0,0.5,0,0.8c0,0.8,0.6,1.5,1.5,1.5c0,0,0,0,0,0
		c0.8,0,1.5-0.6,1.5-1.5c0-1,0.1-2,0.1-3c1.9-1.3,4-2.5,6.1-3.8c2.1-1.2,4.2-2.4,6.4-3.4c2.1,1,4.2,2.2,6.3,3.4
		c2.1,1.2,4.2,2.5,6.1,3.8c0.1,2.3,0.2,4.7,0.2,7.2c0,2.4-0.1,4.8-0.2,7.2c-1.9,1.3-4,2.5-6.1,3.8c-2.1,1.2-4.2,2.4-6.4,3.4
		c-2.1-1.1-4.2-2.2-6.3-3.4c-2.1-1.2-4.2-2.5-6.1-3.8c-0.1-2.3-0.2-4.6-0.2-7c0-0.8-0.7-1.5-1.5-1.5c0,0,0,0,0,0
		c-0.8,0-1.5,0.7-1.5,1.5c0,1.6,0,3.3,0.1,5c-2.4-1.7-4.7-3.4-6.8-5.1C28.8,55.2,31.1,53.5,33.5,51.8z M26.4,83.3
		c-1,0.6-2.3,0.2-2.9-0.8c-0.1-0.2-0.2-0.5-0.3-0.8c0,0,0,0,0,0c-0.1-0.8,0.3-1.7,1-2.1c0.3-0.2,0.7-0.3,1.1-0.3
		c0.8,0,1.5,0.4,1.9,1.1C27.7,81.4,27.4,82.7,26.4,83.3z M29.8,78.9C29.7,78.9,29.7,78.9,29.8,78.9c-0.9-1.6-2.6-2.6-4.5-2.6
		c-0.9,0-1.8,0.2-2.6,0.7c-1.3,0.8-2.1,2-2.4,3.4c-3.9,0.1-6.6-0.8-7.6-2.5c-2-3.4,2.4-10.8,11.7-19c2.8,2.3,6,4.7,9.3,6.9
		c0.3,3.9,0.7,7.8,1.3,11.5C33.2,77.9,31.5,78.5,29.8,78.9z M37.9,76.3c-0.4-2.6-0.8-5.5-1.1-8.4c1.4,0.9,2.9,1.8,4.4,2.7
		c1.5,0.8,3,1.7,4.5,2.5C43.1,74.2,40.5,75.3,37.9,76.3z M52.4,73c1.5-0.8,3-1.6,4.5-2.5c1.5-0.8,2.9-1.7,4.4-2.6
		c-0.3,2.9-0.6,5.7-1,8.4C57.8,75.4,55.2,74.3,52.4,73z M83.3,63.5c1,0.6,1.4,1.9,0.8,2.9c-0.6,1-1.9,1.4-2.9,0.8
		c-0.5-0.3-0.8-0.7-1-1.3c-0.1-0.6-0.1-1.1,0.2-1.6c0.4-0.7,1.1-1.1,1.8-1.1C82.6,63.2,83,63.3,83.3,63.5z M77.8,62.7
		C77.8,62.7,77.8,62.7,77.8,62.7c-0.7,1.2-0.9,2.6-0.5,3.9c0.4,1.3,1.2,2.4,2.4,3.1c0.8,0.4,1.7,0.7,2.6,0.7c0.6,0,1.1-0.1,1.6-0.3
		c2,3.3,2.6,6.1,1.6,7.8c-2,3.4-10.6,3.4-22.3-0.6c0.6-3.6,1.1-7.5,1.3-11.5c3.3-2.2,6.4-4.5,9.3-6.9C75.2,60.2,76.6,61.4,77.8,62.7
		z"/>
</g>
</svg>
